<?xml version="1.0" encoding="UTF-8" standalone="no"?>
<!DOCTYPE svg PUBLIC "-//W3C//DTD SVG 1.1//EN" "http://www.w3.org/Graphics/SVG/1.1/DTD/svg11.dtd">
<!-- Created with Vectornator (http://vectornator.io/) -->
<svg height="100%" stroke-miterlimit="10" style="fill-rule:nonzero;clip-rule:evenodd;stroke-linecap:round;stroke-linejoin:round;" version="1.1" viewBox="0 0 3370.82 2384.24" width="100%" xml:space="preserve" xmlns="http://www.w3.org/2000/svg" xmlns:vectornator="http://vectornator.io" xmlns:xlink="http://www.w3.org/1999/xlink">
<defs/>
<g id="Layer-1" vectornator:layerName="Layer 1">
<g opacity="1" vectornator:layerName="Иконка 2.svg">
<path d="M2270.08 1099.15L3035.79 1099.15C3044.54 1099.15 3053.17 1096.78 3060.94 1092.22C3068.71 1087.65 3075.41 1081.04 3080.43 1072.93C3085.49 1064.84 3088.75 1055.48 3089.93 1045.64C3091.15 1035.82 3090.25 1025.83 3087.3 1016.47L2893.16 396.602C2889.37 384.531 2882.39 374.083 2873.17 366.685C2863.96 359.295 2852.93 355.321 2841.64 355.315L2333.53 355.315C2320.1 355.321 2307.16 360.918 2297.14 371.028C2287.12 381.141 2280.74 395.072 2279.21 410.175L2215.76 1030.04C2214.87 1038.73 2215.62 1047.51 2217.93 1055.86C2220.27 1064.18 2224.11 1071.86 2229.25 1078.41C2234.39 1084.94 2240.66 1090.14 2247.7 1093.72C2254.75 1097.3 2262.37 1099.15 2270.08 1099.15ZM2382.24 479.289L2803.03 479.289L2958.34 975.173L2331.33 975.173L2382.24 479.289Z" fill="#001de1" fill-rule="nonzero" opacity="1" stroke="#001de1" stroke-linecap="butt" stroke-linejoin="miter" stroke-opacity="0.7" stroke-width="16.8353" vectornator:layerName="path"/>
<path d="M2360.87 1161.15L2196.79 1161.15L2196.79 1285.12L2360.87 1285.12L2360.87 1161.15Z" fill="#001de1" fill-rule="nonzero" opacity="1" stroke="#001de1" stroke-linecap="butt" stroke-linejoin="miter" stroke-opacity="0.7" stroke-width="16.8353" vectornator:layerName="path"/>
<path d="M68.7873 1884.29C73.9276 1890.81 80.2231 1896.04 87.2693 1899.59C94.2867 1903.17 101.939 1904.99 109.65 1904.99L442.73 1904.99C455.581 1991.63 495.115 2070.29 554.287 2127.01C613.458 2183.75 688.455 2214.88 765.964 2214.88C843.473 2214.88 918.498 2183.75 977.669 2127.01C1036.84 2070.29 1076.37 1991.63 1089.23 1904.99L2302.34 1904.99C2315.19 1991.63 2354.72 2070.29 2413.9 2127.01C2473.07 2183.75 2548.09 2214.88 2625.6 2214.88C2703.11 2214.88 2778.11 2183.75 2837.28 2127.01C2896.45 2070.29 2935.98 1991.63 2948.83 1904.99L3172.52 1904.99C3185.95 1904.99 3198.89 1899.39 3208.91 1889.28C3218.9 1879.17 3225.31 1865.23 3226.84 1850.12L3315.5 982.306C3316.48 972.372 3315.36 962.323 3312.18 952.995L3059.5 209.146C3055.51 197.444 3048.52 187.377 3039.42 180.273C3030.3 173.169 3019.5 169.363 3008.44 169.352L273.736 169.352C260.307 169.357 247.37 174.951 237.349 185.064C227.328 195.177 220.946 209.114 219.416 224.211L55.3272 1835.89C54.4522 1844.55 55.1944 1853.36 57.5133 1861.7C59.8351 1870.05 63.6759 1877.73 68.7873 1884.29ZM765.964 2090.97C722.704 2090.97 680.398 2076.41 644.415 2049.18C608.462 2021.92 580.393 1983.19 563.845 1937.88C547.298 1892.57 542.967 1842.73 551.399 1794.65C559.831 1746.54 580.681 1702.35 611.263 1667.67C641.874 1633.02 680.86 1609.4 723.282 1599.84C765.733 1590.25 809.714 1595.16 849.71 1613.93C889.678 1632.7 923.84 1664.47 947.867 1705.24C971.923 1746.02 984.744 1793.96 984.744 1843.02C984.744 1875.57 979.084 1907.82 968.111 1937.88C957.108 1967.98 940.994 1995.32 920.664 2018.34C900.363 2041.35 876.249 2059.61 849.71 2072.08C823.142 2084.53 794.697 2090.97 765.964 2090.97ZM1089.23 1781.02C1076.37 1694.38 1036.84 1615.72 977.669 1559C918.498 1502.26 843.473 1471.16 765.964 1471.16C688.455 1471.16 613.458 1502.26 554.287 1559C495.115 1615.72 455.581 1694.38 442.73 1781.02L170.9 1781.02L208.789 1409.1L1958.37 1409.1L1920.45 1781.02L1089.23 1781.02ZM2625.6 2090.97C2582.31 2090.97 2540.04 2076.41 2504.05 2049.18C2468.07 2021.92 2440.03 1983.19 2423.45 1937.88C2406.91 1892.57 2402.58 1842.73 2411.01 1794.65C2419.47 1746.54 2440.29 1702.35 2470.9 1667.67C2501.48 1633.02 2540.47 1609.4 2582.92 1599.84C2625.34 1590.25 2669.35 1595.16 2709.32 1613.93C2749.29 1632.7 2783.45 1664.47 2807.5 1705.24C2831.53 1746.02 2844.35 1793.96 2844.35 1843.02C2844.35 1908.77 2821.31 1971.82 2780.3 2018.34C2739.27 2064.83 2683.62 2090.97 2625.6 2090.97ZM3205.36 983.23L3123.81 1781.02L2948.78 1781.02C2935.93 1694.38 2896.39 1615.72 2837.22 1559C2778.05 1502.26 2703.05 1471.16 2625.54 1471.16C2548.03 1471.16 2473.04 1502.26 2413.84 1559C2354.67 1615.72 2315.13 1694.38 2302.28 1781.02L2030.51 1781.02L2181.95 293.326L2970.87 293.326L3205.36 983.23ZM322.453 293.326L2071.98 293.326L1970.96 1285.12L221.495 1285.12L322.453 293.326Z" fill="#001de1" fill-rule="nonzero" opacity="1" stroke="#001de1" stroke-linecap="butt" stroke-linejoin="miter" stroke-opacity="0.7" stroke-width="16.8353" vectornator:layerName="path"/>
<path d="M820.659 1781.02L711.268 1781.02L711.268 1904.99L820.659 1904.99L820.659 1781.02Z" fill="#001de1" fill-rule="nonzero" opacity="1" stroke="#001de1" stroke-linecap="butt" stroke-linejoin="miter" stroke-opacity="0.7" stroke-width="16.8353" vectornator:layerName="path"/>
<path d="M2680.27 1781.02L2570.88 1781.02L2570.88 1904.99L2680.27 1904.99L2680.27 1781.02Z" fill="#001de1" fill-rule="nonzero" opacity="1" stroke="#001de1" stroke-linecap="butt" stroke-linejoin="miter" stroke-opacity="0.7" stroke-width="16.8353" vectornator:layerName="path"/>
<path d="M1077.73 1099.15L1515.29 1099.15C1528.72 1099.18 1541.69 1093.57 1551.71 1083.44C1561.73 1073.33 1568.11 1059.35 1569.67 1044.25L1619.98 548.34C1620.84 539.659 1620.09 530.863 1617.78 522.534C1615.44 514.203 1611.57 506.53 1606.43 500.006C1601.32 493.486 1595.03 488.267 1587.98 484.695C1580.93 481.132 1573.31 479.283 1565.6 479.289L1128.04 479.289C1114.61 479.283 1101.64 484.871 1091.62 495.002C1081.6 505.129 1075.22 519.086 1073.69 534.21L1023.35 1030.1C1022.49 1038.79 1023.24 1047.57 1025.58 1055.92C1027.89 1064.23 1031.76 1071.92 1036.9 1078.44C1042.04 1084.97 1048.31 1090.19 1055.35 1093.75C1062.4 1097.33 1070.02 1099.18 1077.73 1099.15ZM1176.84 603.263L1504.23 603.263L1466.49 975.173L1138.98 975.173L1176.84 603.263Z" fill="#001de1" fill-rule="nonzero" opacity="1" stroke="#001de1" stroke-linecap="butt" stroke-linejoin="miter" stroke-opacity="0.7" stroke-width="16.8353" vectornator:layerName="path"/>
<path d="M963.952 479.289L635.81 479.289L635.81 603.263L963.952 603.263L963.952 479.289Z" fill="#001de1" fill-rule="nonzero" opacity="1" stroke="#001de1" stroke-linecap="butt" stroke-linejoin="miter" stroke-opacity="0.7" stroke-width="16.8353" vectornator:layerName="path"/>
<path d="M938.799 727.231L720.018 727.231L720.018 851.205L938.799 851.205L938.799 727.231Z" fill="#001de1" fill-rule="nonzero" opacity="1" stroke="#001de1" stroke-linecap="butt" stroke-linejoin="miter" stroke-opacity="0.7" stroke-width="16.8353" vectornator:layerName="path"/>
<path d="M913.646 975.173L804.256 975.173L804.256 1099.15L913.646 1099.15L913.646 975.173Z" fill="#001de1" fill-rule="nonzero" opacity="1" stroke="#001de1" stroke-linecap="butt" stroke-linejoin="miter" stroke-opacity="0.7" stroke-width="16.8353" vectornator:layerName="path"/>
</g>
</g>
</svg>
