<svg width="22" height="22" viewBox="0 0 22 22" fill="none" xmlns="http://www.w3.org/2000/svg">
<path d="M1.75971 2.49029L3.46967 0.78033C3.76256 0.487437 4.23744 0.487436 4.53033 0.78033L8.46967 4.71967C8.76256 5.01256 8.76256 5.48744 8.46967 5.78033L6.83968 7.41032C6.63683 7.61317 6.58654 7.92307 6.71483 8.17967C8.19816 11.1463 10.6037 13.5518 13.5703 15.0352C13.8269 15.1635 14.1368 15.1132 14.3397 14.9103L15.9697 13.2803C16.2626 12.9874 16.7374 12.9874 17.0303 13.2803L20.9697 17.2197C21.2626 17.5126 21.2626 17.9874 20.9697 18.2803L19.2597 19.9903C17.6762 21.5738 15.1693 21.752 13.3777 20.4083L8.47143 16.7286C7.16378 15.7478 6.00216 14.5862 5.02143 13.2786L1.3417 8.37226C-0.00195861 6.58072 0.176201 4.0738 1.75971 2.49029Z" fill="#FFF969" stroke="#3036D4" stroke-width="0.9"/>
</svg>
