<svg width="28" height="28" viewBox="0 0 28 28" fill="none" xmlns="http://www.w3.org/2000/svg">
<path d="M20.8559 20.4808C21.6306 20.9544 22.0385 21.4916 22.0385 22.0385C22.0385 22.5853 21.6306 23.1226 20.8559 23.5962C20.0812 24.0698 18.9669 24.4631 17.625 24.7365C16.2832 25.0099 14.761 25.1539 13.2116 25.1539C11.6621 25.1539 10.14 25.0099 8.79811 24.7365C7.45624 24.4631 6.34195 24.0698 5.56723 23.5962C4.7925 23.1226 4.38464 22.5853 4.38464 22.0385C4.38464 21.4916 4.7925 20.9544 5.56723 20.4808" stroke="#001DE1" stroke-width="0.75" stroke-linecap="round"/>
<path d="M21 13.2116C21 18.5581 15.0003 22.1191 13.5326 22.9102C13.3306 23.0191 13.0925 23.0191 12.8905 22.9102C11.4228 22.1191 5.4231 18.5581 5.4231 13.2116C5.4231 8.53848 9.19687 5.4231 13.2116 5.4231C17.3654 5.4231 21 8.53848 21 13.2116Z" stroke="#3036D4" stroke-width="0.75"/>
<circle cx="13.2116" cy="13.2115" r="3.77885" stroke="#001DE1" stroke-width="0.75"/>
</svg>
