<svg width="41" height="55" viewBox="0 0 41 55" fill="none" xmlns="http://www.w3.org/2000/svg">
<path d="M4.62464 0.650757H22.6268C23.8958 0.650757 25.0545 1.10407 25.8921 1.83198C26.7298 2.5599 27.2514 3.56241 27.2514 4.66954V22.4446C29.5738 23.2466 30.6422 24.8811 31.6955 26.4895C32.4178 27.5967 33.1351 28.6864 34.2486 29.2661C35.3722 29.8458 36.3653 30.517 37.0826 31.3408C37.8551 32.2257 38.2965 33.2587 38.2513 34.5009C38.0708 39.0689 38.5021 41.1699 39.2545 44.8182C39.5003 45.995 39.7762 47.3244 40.0671 48.9067C40.4784 49.87 40.1072 50.7504 39.2094 51.5176C38.5623 52.0711 37.6093 52.5593 36.4958 52.969C35.4374 53.357 34.2286 53.6752 33.0197 53.9018C29.5086 54.5644 25.7517 54.4249 24.7234 53.0301C24.6733 52.9603 24.6331 52.8862 24.603 52.8121C24.5228 52.6073 24.4124 52.3588 24.287 52.0755L23.9359 51.3127C22.6217 50.3712 21.2825 49.3513 20.0686 48.2267C18.905 47.1457 17.8767 45.9776 17.1293 44.6961C15.9556 44.5523 15.3236 44.6525 14.2101 44.8225C13.7285 44.901 13.1768 44.9881 12.6401 45.0579C10.9798 45.2715 9.75592 44.5348 9.09884 43.4887C8.82296 43.0529 8.65242 42.556 8.59725 42.0591C8.54709 41.5491 8.61229 41.0304 8.81293 40.564L8.85807 40.4681C8.8982 40.3766 8.94836 40.2894 8.99852 40.2022H4.62464C3.3506 40.2022 2.19694 39.7489 1.35928 39.021C0.521625 38.2974 -3.05176e-05 37.2906 -3.05176e-05 36.1834V4.66954C-3.05176e-05 3.56241 0.521625 2.5599 1.35928 1.83198C2.19694 1.10407 3.3506 0.650757 4.62464 0.650757ZM24.909 31.8421V23.1769V4.66954C24.909 4.12469 24.6482 3.6278 24.2369 3.27038C23.8256 2.9086 23.2537 2.6863 22.6268 2.6863H4.62464C3.99765 2.6863 3.42584 2.9086 3.01453 3.27038C2.59821 3.6278 2.3424 4.12469 2.3424 4.66954V36.1834C2.3424 36.7283 2.59821 37.2252 3.01453 37.5826C3.42584 37.9444 3.99765 38.1667 4.62464 38.1667H17.6861C17.0591 37.4388 16.4221 36.7457 15.755 36.0745L15.7299 36.0483C15.1581 36.4668 14.4257 36.7196 13.6232 36.7196C12.7304 36.7196 11.9178 36.4057 11.3309 35.8958C10.739 35.3814 10.3779 34.6753 10.3779 33.8994C10.3779 33.1541 10.7039 32.4785 11.2456 31.9729C10.2324 30.966 9.97161 29.7543 10.2425 28.6864C10.3829 28.1371 10.6688 27.6228 11.0651 27.2C11.4663 26.7641 11.988 26.4111 12.5999 26.1888C13.8238 25.7355 15.3788 25.8008 16.9839 26.7598C18.7745 27.832 20.505 28.9043 22.1603 29.9853C23.1083 30.6086 24.0262 31.2232 24.909 31.8421ZM14.6916 35.0371C13.9593 34.3397 13.1818 33.6466 12.3542 32.9318C12.0933 33.1933 11.9378 33.5289 11.9378 33.8994C11.9378 34.3004 12.1234 34.6709 12.4294 34.9368C12.7354 35.2027 13.1567 35.364 13.6232 35.364C14.0295 35.364 14.4007 35.2419 14.6916 35.0371ZM20.9565 38.6897C21.1972 38.8466 21.3678 39.082 21.4129 39.3566C21.453 39.4569 21.4731 39.5615 21.4731 39.6704C21.4731 39.714 21.4681 39.762 21.4631 39.8012C21.6386 41.305 21.9346 42.4426 22.4512 43.4277C23.013 44.4869 23.8607 45.424 25.1297 46.5006C25.5912 46.8929 25.6012 47.5337 25.1498 47.9347C24.7033 48.3357 23.966 48.3444 23.4995 47.9565C22.0248 46.7055 21.0267 45.5853 20.3295 44.2689C19.7777 43.2228 19.4417 42.0852 19.226 40.6948L12.0031 40.7427C11.4814 40.7471 11.1654 40.9476 11.0249 41.2178L11.0049 41.2701C10.9246 41.4575 10.8996 41.6668 10.9196 41.876C10.9447 42.1026 11.0199 42.3249 11.1453 42.5211C11.366 42.8698 11.7673 43.1139 12.304 43.0441C12.9812 42.957 13.4226 42.8872 13.7987 42.8306C15.3687 42.5865 16.1512 42.4644 18.1375 42.787C18.4987 42.848 18.8247 43.0529 18.9852 43.371C19.6272 44.6264 20.6204 45.7771 21.769 46.845C22.9327 47.9216 24.272 48.9285 25.5861 49.87C25.7617 49.9789 25.9072 50.1271 25.9924 50.3146L26.4639 51.3345L26.7549 52.0101C27.3517 52.5462 29.945 52.4024 32.5282 51.9186C33.6216 51.7094 34.69 51.4304 35.5879 51.0991C36.4406 50.7897 37.1378 50.4366 37.5692 50.0705C37.7949 49.8787 37.9153 49.7087 37.8701 49.591C37.83 49.5125 37.7999 49.4254 37.7849 49.3338C37.4789 47.6775 37.203 46.3481 36.9622 45.1756C36.1798 41.3922 35.7283 39.2128 35.9189 34.4356C35.944 33.6989 35.6832 33.0887 35.2267 32.5657C34.7151 31.9772 33.9477 31.4716 33.0498 31.0052C31.4096 30.1553 30.5419 28.8302 29.6691 27.4921C28.997 26.4634 28.3148 25.426 27.2514 24.7547V33.9997C27.2464 34.2351 27.1561 34.4704 26.9655 34.6579C26.5442 35.085 25.8119 35.133 25.3203 34.7712C23.8858 33.7077 22.3609 32.6528 20.7608 31.6067C19.1557 30.5563 17.4453 29.4971 15.6597 28.4292C14.8019 27.9149 14.0495 27.8538 13.5028 28.0543C13.262 28.1415 13.0514 28.2897 12.8808 28.4684C12.7053 28.6602 12.5849 28.8825 12.5197 29.1222C12.3843 29.654 12.5548 30.2729 13.1667 30.7873C14.7869 32.1516 16.2064 33.42 17.5256 34.7538C18.7294 35.9699 19.8479 37.2383 20.9565 38.6897Z" fill="#001DE1"/>
<path fill-rule="evenodd" clip-rule="evenodd" d="M16.3769 10.8545C16.3418 11.6086 15.6295 12.2057 14.7568 12.2057C13.884 12.2057 13.1767 11.6086 13.1366 10.8545H16.3769ZM14.3003 15.8235L10.5233 15.0651C10.3277 15.0258 10.1672 15.1392 10.1672 15.3222V19.0969C10.1672 19.2713 10.2876 19.4979 10.4832 19.5372L14.3003 20.361C14.4959 20.4046 14.6564 20.2869 14.6564 20.1082V16.2245C14.6564 16.0414 14.4959 15.8627 14.3003 15.8235ZM15.3938 15.8235L16.7531 15.5489V16.7519L17.8365 16.4991V15.331L19.1657 15.0651C19.3664 15.0258 19.5269 15.1392 19.5269 15.3222V18.3341L17.5456 18.7962C16.5926 19.0185 16.1662 19.6418 16.1913 20.2041L15.3938 20.361C15.1931 20.4046 15.0326 20.2869 15.0326 20.1082V16.2245C15.0326 16.0414 15.1931 15.8627 15.3938 15.8235ZM10.749 14.7033L12.2889 14.4287L16.7531 15.1958L15.1229 15.4879C14.9574 15.514 14.4859 15.4792 14.0696 15.4051L11.2055 14.8907C10.7892 14.8166 10.5835 14.7338 10.749 14.7033ZM12.309 9.28534C12.003 9.0892 12.0231 8.90177 12.3591 8.69691C13.7837 7.82952 15.9154 7.86003 17.3349 8.72306C17.5857 8.87562 17.6259 9.10664 17.3951 9.28099C17.2095 9.45098 16.9387 9.49457 16.5926 9.42918C15.459 8.83639 14.3254 8.85819 13.1968 9.41611C12.8357 9.49892 12.5447 9.44226 12.309 9.28534ZM17.3751 13.4262L16.9989 12.8683C16.8785 12.829 16.728 12.6852 16.6377 12.7593L15.0577 14.0408L16.5876 14.2892L18.4435 14.6205C18.8598 14.6989 19.0654 14.7818 18.8999 14.8123L17.8215 15.004L13.4075 14.2369L14.526 14.0277L12.936 12.7593C12.8457 12.6852 12.6451 12.7724 12.5798 12.8683L12.2087 13.4131C10.5986 13.1777 9.57532 14.0451 8.20096 14.481C7.84984 14.59 7.69937 14.7294 7.78965 14.3372L8.38153 11.735L9.40979 11.0855C9.85119 10.8109 9.61544 10.2312 9.09379 10.4753C8.60223 10.7063 8.55709 10.6758 8.71258 10.2835C9.37468 8.61409 6.35008 8.32206 5.99897 9.87378L4.76506 15.331C4.50423 16.4904 5.55255 17.7021 7.19276 17.3752L9.42484 16.9306C9.58033 16.8958 9.81107 17.0396 9.81107 17.1791V19.3672C9.81107 19.5677 9.99164 19.8031 10.2123 19.851L13.5028 20.592V20.5963C13.7385 20.6487 13.9642 20.7053 14.1849 20.7445L14.19 20.7489C14.5862 20.823 14.9724 20.8579 15.4189 20.7663L16.2816 20.5833C16.5023 21.054 17.1042 21.3766 18.0271 21.163L21.2825 20.4046C22.0449 20.2259 22.386 19.8379 22.3508 19.2321C22.3157 18.7308 22.2154 18.2339 22.0549 17.7544L22.0499 17.7501C21.3778 15.7407 19.6272 14.1323 17.3751 13.4262ZM18.1074 8.93664C18.4936 8.94536 18.7595 9.32457 18.7143 9.70379C18.6642 10.083 18.4284 10.3314 18.1325 10.4317C17.7663 11.7263 16.417 12.6852 14.822 12.6852C13.2269 12.6852 11.8977 11.7393 11.5215 10.4622C11.1754 10.4012 10.8795 10.1048 10.8293 9.70379C10.7791 9.30278 11.2356 8.93664 11.4513 8.93664C11.6619 8.93664 11.5115 8.93664 11.5365 8.941L11.5416 8.92793C11.2607 7.76849 11.7422 6.88366 11.8776 6.73111C12.3642 6.16447 13.2871 5.74603 14.4107 5.67629C14.4458 5.52373 14.6013 5.4104 14.7869 5.4104C14.9724 5.4104 15.1229 5.52373 15.163 5.67193C16.3418 5.72859 17.4102 6.09037 17.7663 6.71803C18.0071 7.13647 18.3431 8.03874 18.1074 8.93664Z" fill="#001DE1"/>
</svg>
