<svg width="55" height="78" viewBox="0 0 55 78" fill="none" xmlns="http://www.w3.org/2000/svg">
<path d="M36.68 42.6714H48.4925C48.6275 42.6713 48.7605 42.6345 48.8803 42.5641C49.0002 42.4937 49.1034 42.3917 49.1812 42.2668C49.2591 42.1418 49.3094 41.9975 49.3278 41.8459C49.3463 41.6943 49.3324 41.54 49.2873 41.3958L46.292 31.8333C46.2338 31.6471 46.1261 31.4859 45.9838 31.3718C45.8415 31.2578 45.6715 31.1965 45.4972 31.1964H37.6587C37.4518 31.1965 37.2521 31.2828 37.0977 31.4388C36.9432 31.5948 36.8447 31.8097 36.8209 32.0427L35.8421 41.6052C35.8285 41.7391 35.8399 41.8748 35.8758 42.0034C35.9116 42.1319 35.9711 42.2504 36.0502 42.3511C36.1293 42.4518 36.2263 42.5324 36.3349 42.5876C36.4434 42.6428 36.561 42.6714 36.68 42.6714ZM38.4105 33.1089H44.9015L47.2977 40.7589H37.625L38.4105 33.1089Z" fill="#001DE1" stroke="#001DE1" stroke-opacity="0.7" stroke-width="0.75"/>
<path d="M38.0806 43.6276H35.5494V45.5401H38.0806V43.6276Z" fill="#001DE1" stroke="#001DE1" stroke-opacity="0.7" stroke-width="0.75"/>
<path d="M2.72162 54.7832C2.80086 54.8838 2.89799 54.9643 3.00661 55.0193C3.11524 55.0744 3.23291 55.1028 3.3519 55.1026H8.49034C8.68864 56.439 9.29838 57.6525 10.2113 58.5276C11.1242 59.4028 12.2812 59.883 13.4769 59.883C14.6726 59.883 15.8296 59.4028 16.7425 58.5276C17.6554 57.6525 18.2652 56.439 18.4635 55.1026H37.1778C37.3761 56.439 37.9859 57.6525 38.8988 58.5276C39.8117 59.4028 40.9687 59.883 42.1644 59.883C43.3601 59.883 44.5171 59.4028 45.43 58.5276C46.3429 57.6525 46.9527 56.439 47.151 55.1026H50.6019C50.8088 55.1026 51.0085 55.0163 51.163 54.8603C51.3174 54.7042 51.4159 54.4893 51.4397 54.2564L52.8075 40.8689C52.8227 40.7156 52.8051 40.5604 52.756 40.4165L48.8579 28.9415C48.7968 28.761 48.6889 28.6057 48.5483 28.4961C48.4078 28.3865 48.2412 28.3278 48.0706 28.3276H5.88315C5.67623 28.3277 5.47655 28.414 5.32207 28.57C5.1676 28.726 5.0691 28.941 5.0453 29.1739L2.51405 54.0364C2.50052 54.1704 2.512 54.3062 2.54776 54.4349C2.58352 54.5635 2.64275 54.6822 2.72162 54.7832ZM13.4769 57.9714C12.8094 57.9714 12.1569 57.7471 11.6018 57.3268C11.0468 56.9065 10.6142 56.3091 10.3588 55.6102C10.1034 54.9112 10.0365 54.1421 10.1667 53.4002C10.297 52.6582 10.6184 51.9766 11.0904 51.4417C11.5624 50.9068 12.1638 50.5425 12.8185 50.3949C13.4732 50.2473 14.1518 50.323 14.7685 50.6125C15.3852 50.9021 15.9123 51.3923 16.2831 52.0213C16.654 52.6503 16.8519 53.3899 16.8519 54.1464C16.8519 54.6487 16.7646 55.1461 16.595 55.6102C16.4254 56.0742 16.1768 56.4959 15.8634 56.8511C15.55 57.2063 15.1779 57.488 14.7685 57.6802C14.359 57.8724 13.9201 57.9714 13.4769 57.9714ZM18.4635 53.1901C18.2652 51.8538 17.6554 50.6403 16.7425 49.7652C15.8296 48.89 14.6726 48.4098 13.4769 48.4098C12.2812 48.4098 11.1242 48.89 10.2113 49.7652C9.29838 50.6403 8.68864 51.8538 8.49034 53.1901H4.2969L4.88162 47.4526H31.8715L31.2868 53.1901H18.4635ZM42.1644 57.9714C41.4969 57.9714 40.8444 57.7471 40.2893 57.3268C39.7343 56.9065 39.3018 56.3091 39.0463 55.6102C38.7909 54.9112 38.724 54.1421 38.8542 53.4002C38.9845 52.6582 39.3059 51.9766 39.7779 51.4417C40.2499 50.9068 40.8513 50.5425 41.506 50.3949C42.1607 50.2473 42.8393 50.323 43.456 50.6125C44.0727 50.9021 44.5998 51.3923 44.9706 52.0213C45.3415 52.6503 45.5394 53.3899 45.5394 54.1464C45.5394 55.1608 45.1838 56.1337 44.5509 56.8511C43.9179 57.5684 43.0595 57.9714 42.1644 57.9714ZM51.1081 40.8832L49.8501 53.1901H47.1501C46.9518 51.8538 46.3421 50.6403 45.4292 49.7652C44.5163 48.89 43.3592 48.4098 42.1636 48.4098C40.9679 48.4098 39.8109 48.89 38.8979 49.7652C37.985 50.6403 37.3753 51.8538 37.177 53.1901H32.9844L35.3207 30.2401H47.491L51.1081 40.8832ZM6.63493 30.2401H33.624L32.0656 45.5401H5.07737L6.63493 30.2401Z" fill="#001DE1" stroke="#001DE1" stroke-opacity="0.7" stroke-width="0.75"/>
<path d="M14.3206 53.1901H12.6331V55.1026H14.3206V53.1901Z" fill="#001DE1" stroke="#001DE1" stroke-opacity="0.7" stroke-width="0.75"/>
<path d="M43.0081 53.1901H41.3206V55.1026H43.0081V53.1901Z" fill="#001DE1" stroke="#001DE1" stroke-opacity="0.7" stroke-width="0.75"/>
<path d="M18.2863 42.6714H25.0363C25.2435 42.6715 25.4435 42.5852 25.5981 42.429C25.7528 42.2727 25.8513 42.0574 25.875 41.8241L26.6512 34.1741C26.6648 34.0402 26.6532 33.9045 26.6172 33.776C26.5813 33.6475 26.5217 33.5291 26.4425 33.4285C26.3633 33.3279 26.2662 33.2474 26.1577 33.1923C26.0491 33.1373 25.9315 33.1088 25.8125 33.1089H19.0625C18.8553 33.1088 18.6553 33.195 18.5007 33.3513C18.346 33.5075 18.2474 33.7228 18.2238 33.9561L17.4476 41.6061C17.434 41.7401 17.4456 41.8757 17.4816 42.0042C17.5175 42.1328 17.5771 42.2512 17.6563 42.3518C17.7355 42.4524 17.8325 42.5329 17.9411 42.5879C18.0497 42.643 18.1673 42.6715 18.2863 42.6714ZM19.8151 35.0214H24.8658L24.2836 40.7589H19.2313L19.8151 35.0214Z" fill="#001DE1" stroke="#001DE1" stroke-opacity="0.7" stroke-width="0.75"/>
<path d="M16.5312 33.1089H11.4688V35.0214H16.5312V33.1089Z" fill="#001DE1" stroke="#001DE1" stroke-opacity="0.7" stroke-width="0.75"/>
<path d="M16.1431 36.9338H12.7681V38.8463H16.1431V36.9338Z" fill="#001DE1" stroke="#001DE1" stroke-opacity="0.7" stroke-width="0.75"/>
<path d="M15.755 40.7589H14.0675V42.6714H15.755V40.7589Z" fill="#001DE1" stroke="#001DE1" stroke-opacity="0.7" stroke-width="0.75"/>
<path d="M26.6562 17.8088H24.9688V19.7213H26.6562V17.8088Z" fill="#001DE1" stroke="#001DE1" stroke-opacity="0.7" stroke-width="0.75"/>
<path d="M37.625 17.8088H28.3438V19.7213H37.625V17.8088Z" fill="#001DE1" stroke="#001DE1" stroke-opacity="0.7" stroke-width="0.75"/>
<path d="M5.5625 5.37756H3.875V7.29006H5.5625V5.37756Z" fill="#001DE1" stroke="#001DE1" stroke-opacity="0.7" stroke-width="0.75"/>
<path d="M16.5312 5.37756H7.25V7.29006H16.5312V5.37756Z" fill="#001DE1" stroke="#001DE1" stroke-opacity="0.7" stroke-width="0.75"/>
<path d="M16.5312 2.50891H11.4688V4.42141H16.5312V2.50891Z" fill="#001DE1" stroke="#001DE1" stroke-opacity="0.7" stroke-width="0.75"/>
<path d="M52.8125 6.33386H47.75V8.24636H52.8125V6.33386Z" fill="#001DE1" stroke="#001DE1" stroke-opacity="0.7" stroke-width="0.75"/>
</svg>
