<?xml version="1.0" encoding="UTF-8" standalone="no"?>
<!DOCTYPE svg PUBLIC "-//W3C//DTD SVG 1.1//EN" "http://www.w3.org/Graphics/SVG/1.1/DTD/svg11.dtd">
<!-- Created with Vectornator (http://vectornator.io/) -->
<svg height="100%" stroke-miterlimit="10" style="fill-rule:nonzero;clip-rule:evenodd;stroke-linecap:round;stroke-linejoin:round;" version="1.1" viewBox="0 0 54 69" width="100%" xml:space="preserve" xmlns="http://www.w3.org/2000/svg" xmlns:vectornator="http://vectornator.io" xmlns:xlink="http://www.w3.org/1999/xlink">
<defs/>
<clipPath id="ArtboardFrame">
<rect height="69" width="54" x="0" y="0"/>
</clipPath>
<g clip-path="url(#ArtboardFrame)" id="Untitled" vectornator:layerName="Untitled">
<path d="M10.0456 44.2227C10.5848 44.5998 10.9731 45.1686 11.1376 45.8222L11.834 48.3847C12.1345 49.5145 12.8506 50.4762 13.8274 51.0622C14.8043 51.6481 15.9637 51.8116 17.0555 51.517L18.3097 51.188L12.0229 66.12L9.55862 59.8839C9.48004 59.6856 9.32888 59.5277 9.13837 59.445C8.94786 59.3624 8.7336 59.3616 8.54268 59.443L2.61884 61.9734L10.0456 44.2227ZM27.4016 3.55271e-15L26.5996 3.55271e-15C25.6149 0.0968707 24.6924 0.543095 23.987 1.26364L22.1499 3.12075C21.8163 3.47148 21.399 3.7236 20.9406 3.85121C20.4821 3.97882 19.9995 3.97733 19.5419 3.84689L17.0584 3.19206C15.9665 2.89813 14.8073 3.06184 13.8306 3.64791C12.8539 4.23397 12.1379 5.19546 11.8369 6.32509L11.1376 8.88993C11.0171 9.36669 10.7768 9.80163 10.4414 10.1502C10.106 10.4987 9.68749 10.7484 9.22882 10.8736L6.76163 11.5974C5.67459 11.9098 4.74937 12.6537 4.18556 13.6689C3.6217 14.6839 3.46444 15.8886 3.74767 17.0231L4.37782 19.604C4.50323 20.0799 4.50456 20.5818 4.38182 21.0583C4.259 21.535 4.01647 21.969 3.67906 22.3161L1.89506 24.2254C1.10333 25.0604 0.659538 26.1856 0.659538 27.3579C0.659538 28.5303 1.10333 29.6555 1.89506 30.4905L3.6857 32.3953C4.02305 32.7421 4.26554 33.1761 4.38836 33.6526C4.5111 34.129 4.50976 34.6309 4.38436 35.1065L3.75432 37.6875C3.47106 38.822 3.62831 40.0269 4.19215 41.042C4.75604 42.0573 5.68126 42.8013 6.7683 43.1139L8.59351 43.6506L0.426827 63.1519C0.36363 63.2996 0.344525 63.4635 0.371982 63.6226C0.399424 63.7817 0.472174 63.9285 0.580812 64.0441C0.689449 64.1598 0.828972 64.2388 0.981315 64.2712C1.13367 64.3035 1.29186 64.2875 1.4354 64.2254L8.41274 61.2495L11.2776 68.4986C11.3358 68.6454 11.4343 68.7713 11.5607 68.8605C11.6872 68.9496 11.8361 68.9981 11.9889 69L11.9978 69C12.1491 68.9999 12.297 68.954 12.4238 68.8679C12.5504 68.7819 12.6503 68.6594 12.7113 68.5154L20.1837 50.7685C20.5479 50.7583 20.9104 50.8258 21.2485 50.9667C21.5867 51.1077 21.8935 51.3193 22.1499 51.5882L23.987 53.4469C24.7908 54.2689 25.8733 54.7297 27.0009 54.7297C28.1287 54.7297 29.2112 54.2689 30.0149 53.4469L31.8513 51.5882C32.1077 51.3191 32.4144 51.1075 32.7526 50.9665C33.0908 50.8255 33.4533 50.7581 33.8175 50.7685L41.2899 68.5154C41.3509 68.6595 41.4507 68.782 41.5774 68.8681C41.704 68.9541 41.8521 69 42.0034 69L42.0124 69C42.1651 68.9981 42.3139 68.9494 42.4403 68.8603C42.5668 68.7712 42.6653 68.6454 42.7236 68.4986L45.587 61.2465L52.5651 64.2224C52.7087 64.2839 52.8666 64.2994 53.0187 64.2668C53.1708 64.2344 53.3101 64.1553 53.4186 64.0399C53.5272 63.9245 53.5999 63.7778 53.6276 63.6191C53.6555 63.4603 53.6368 63.2966 53.5744 63.1488L45.4121 43.6491L47.2352 43.1124C48.3222 42.7998 49.2476 42.0557 49.8115 41.0405C50.3754 40.0254 50.5329 38.8207 50.2499 37.686L49.6198 35.105C49.4944 34.6293 49.493 34.1274 49.6159 33.6508C49.7389 33.1744 49.9816 32.7404 50.3193 32.3937L52.1062 30.486C52.8973 29.6506 53.3408 28.5255 53.3408 27.3534C53.3408 26.1812 52.8973 25.0561 52.1062 24.2207L50.3193 22.313C49.9816 21.9662 49.7388 21.532 49.6159 21.0555C49.4929 20.5788 49.4942 20.0768 49.6198 19.6009L50.2499 17.02C50.5329 15.8854 50.3754 14.6807 49.8114 13.6657C49.2474 12.6507 48.3222 11.9068 47.2352 11.5943L44.7695 10.8705C44.3114 10.7453 43.8936 10.496 43.5586 10.148C43.2237 9.80003 42.9836 9.36589 42.863 8.88993L42.1679 6.32661C41.8672 5.19671 41.151 4.23497 40.1742 3.64885C39.1972 3.06273 38.0377 2.89922 36.9458 3.1936L34.4624 3.84842C34.0048 3.97879 33.5221 3.98026 33.064 3.85265C32.6057 3.72503 32.1884 3.47295 31.855 3.12229L30.0149 1.26364C29.3091 0.543295 28.3864 0.0971375 27.4016 3.55271e-15ZM5.25874 38.0854C5.08771 38.8107 5.19297 39.5765 5.55251 40.2228C5.91206 40.8694 6.49801 41.3463 7.18801 41.5543L9.65374 42.2774C10.3687 42.4782 11.0204 42.8703 11.5441 43.4145C12.0677 43.9586 12.445 44.636 12.6382 45.379L13.3354 47.9415C13.5348 48.6596 13.9942 49.2694 14.6168 49.6432C15.2394 50.017 15.9773 50.1258 16.6755 49.9466L19.1596 49.2918C19.5188 49.1959 19.8881 49.1469 20.2589 49.1461C21.3748 49.1479 22.4446 49.6083 23.2352 50.4266L25.0717 52.289C25.5902 52.8068 26.2814 53.0959 27.0005 53.0959C27.7198 53.0959 28.411 52.8068 28.9295 52.289L30.763 50.4297C31.2879 49.8866 31.9405 49.4961 32.6559 49.2969C33.3712 49.0978 34.1244 49.097 34.8401 49.2949L37.3236 49.9497C38.0219 50.1288 38.7599 50.0202 39.3828 49.6464C40.0057 49.2726 40.4653 48.6628 40.665 47.9446L41.3608 45.382C41.5541 44.6391 41.9312 43.9617 42.4549 43.4175C42.9785 42.8733 43.6304 42.4812 44.3452 42.2805L46.8109 41.5574C47.5017 41.3498 48.0885 40.8723 48.4482 40.2251C48.8078 39.5778 48.9126 38.8111 48.7403 38.0854L48.1102 35.5044C47.9197 34.7607 47.9202 33.9779 48.1118 33.2344C48.3034 32.4909 48.6794 31.8127 49.2022 31.2673L50.9906 29.3627C51.4894 28.8241 51.7681 28.1055 51.7681 27.3579C51.7681 26.6104 51.4894 25.8918 50.9906 25.3532L49.2037 23.4454C48.681 22.9002 48.3051 22.2219 48.1136 21.4784C47.922 20.7349 47.9213 19.9522 48.1117 19.2084L48.7418 16.6274C48.914 15.9018 48.8093 15.1349 48.4496 14.4877C48.0899 13.8406 47.5033 13.3631 46.8124 13.1555L44.3467 12.4316C43.6317 12.2309 42.9799 11.839 42.4562 11.2948C41.9326 10.7505 41.5554 10.0731 41.3622 9.33005L40.6665 6.76751C40.4664 6.04958 40.0069 5.43994 39.384 5.0662C38.7611 4.69246 38.0233 4.58361 37.325 4.7624L34.8416 5.41799C34.1254 5.61544 33.3719 5.61428 32.6563 5.41462C31.9405 5.21495 31.2877 4.82379 30.763 4.28011L28.9295 2.42146C28.411 1.90371 27.7198 1.61456 27.0005 1.61456C26.2814 1.61456 25.5902 1.90371 25.0717 2.42146L23.2375 4.28011C22.7129 4.82312 22.0605 5.21367 21.3453 5.4128C20.6302 5.61192 19.8774 5.61265 19.1618 5.41492L16.6776 4.75934C15.9795 4.58058 15.242 4.68948 14.6193 5.06325C13.9967 5.43702 13.5374 6.04663 13.3377 6.76444L12.6404 9.32699C12.4473 10.0701 12.07 10.7475 11.5463 11.2919C11.0227 11.8362 10.371 12.2284 9.65601 12.4293L7.19028 13.1524C6.49961 13.3604 5.91313 13.8379 5.55358 14.4849C5.1939 15.1321 5.08904 15.8987 5.26087 16.6243L5.89098 19.2053C6.08163 19.949 6.08123 20.7317 5.88978 21.4753C5.69833 22.2189 5.32251 22.8971 4.7998 23.4424L3.01061 25.3502C2.51275 25.8893 2.23476 26.6076 2.23476 27.3548C2.23476 28.1022 2.51275 28.8205 3.01061 29.3596L4.7998 31.2673C5.32264 31.8125 5.69847 32.4908 5.89005 33.2344C6.08149 33.9779 6.08189 34.7608 5.89098 35.5044L5.26087 38.0854L5.25874 38.0854ZM45.4585 59.443C45.3639 59.4026 45.2627 59.382 45.1605 59.3823C45.0583 59.3826 44.957 59.4038 44.8627 59.4447C44.7684 59.4857 44.6827 59.5456 44.6106 59.621C44.5385 59.6962 44.4814 59.7856 44.4426 59.8839L41.9777 66.12L35.693 51.1872L36.9422 51.517C38.0339 51.8113 39.1934 51.648 40.1702 51.0619C41.1472 50.476 41.8633 49.5145 42.1643 48.3847L42.863 45.8222C43.0294 45.1688 43.4181 44.6005 43.9571 44.2227L51.3824 61.9696L45.4585 59.4391L45.4585 59.443ZM27.0003 9.86373L30.842 12.1686L17.045 20.4498L13.2048 18.1494L27.0017 9.86832L27.0003 9.86373ZM27.7786 44.379L27.7786 27.8215L41.5756 19.5403L41.5756 36.1011L27.7786 44.3821L27.7786 44.379ZM21.0071 22.8252L18.6004 21.3806L32.3972 13.0995L34.804 14.544L21.0071 22.8252ZM17.7851 22.7593L20.2295 24.2254L20.2295 27.159L17.7098 25.5043L17.7836 22.7585L17.7851 22.7593ZM27.0003 26.4205L22.5638 23.7591L36.3607 15.4781L40.7971 18.1426L27.0003 26.4236L27.0003 26.4205ZM12.4242 19.5434L12.4242 36.1011L26.2211 44.3821L26.2211 27.8215L21.784 25.1601L21.784 28.6265C21.784 28.7711 21.7468 28.9131 21.6762 29.0377C21.6056 29.1622 21.5042 29.2649 21.3825 29.3351C21.2603 29.4048 21.1223 29.4394 20.9828 29.4351C20.8434 29.4307 20.7076 29.3878 20.5894 29.3105L16.5021 26.6268C16.3877 26.5518 16.2942 26.4472 16.2307 26.3233C16.1672 26.1993 16.1358 26.0603 16.1398 25.9198L16.2512 21.8406L12.4227 19.5403L12.4242 19.5434ZM11.257 37.2674L26.6114 46.48C26.7294 46.5514 26.8637 46.5889 27.0003 46.5889C27.1368 46.5889 27.271 46.5514 27.389 46.48L42.7427 37.2674C42.861 37.1964 42.9592 37.0943 43.0274 36.9714C43.0957 36.8486 43.1315 36.7092 43.1315 36.5672L43.1315 18.1426C43.1315 18.0005 43.0957 17.8609 43.0275 17.7379C42.9592 17.6149 42.861 17.5127 42.7427 17.4418L27.389 8.22898C27.2708 8.15812 27.1368 8.12082 27.0003 8.12082C26.8638 8.12082 26.7297 8.15812 26.6114 8.22898L11.257 17.4418C11.1386 17.5126 11.0403 17.6148 10.9721 17.7378C10.9038 17.8609 10.8679 18.0005 10.8682 18.1426L10.8682 36.5703C10.8686 36.7117 10.9046 36.8506 10.9729 36.9729C11.0411 37.0953 11.1392 37.1968 11.257 37.2674Z" fill="#001de1" fill-rule="evenodd" opacity="1" stroke="#001de1" stroke-linecap="butt" stroke-linejoin="miter" stroke-width="0.75" vectornator:layerName="path"/>
</g>
</svg>
