<svg width="54" height="69" viewBox="0 0 54 69" fill="none" xmlns="http://www.w3.org/2000/svg">
<path fill-rule="evenodd" clip-rule="evenodd" d="M14.3101 34.684C14.7143 34.9667 15.0053 35.393 15.1286 35.8829L15.6506 37.8037C15.8759 38.6505 16.4126 39.3714 17.1448 39.8106C17.877 40.2498 18.7461 40.3723 19.5644 40.1515L20.5045 39.9049L15.7922 51.0973L13.9451 46.423C13.8862 46.2743 13.7729 46.156 13.6301 46.094C13.4873 46.0321 13.3267 46.0315 13.1836 46.0925L8.74335 47.9892L14.3101 34.684ZM27.3194 1.53662H26.7183C25.9802 1.60923 25.2887 1.9437 24.76 2.48379L23.383 3.8758C23.1329 4.13869 22.8201 4.32767 22.4765 4.42332C22.1329 4.51897 21.7711 4.51785 21.4281 4.42008L19.5666 3.92925C18.7482 3.70893 17.8793 3.83164 17.1472 4.27093C16.4151 4.71022 15.8784 5.43091 15.6528 6.27763L15.1286 8.20012C15.0383 8.55748 14.8582 8.88349 14.6068 9.14475C14.3554 9.40601 14.0417 9.59313 13.6979 9.68696L11.8486 10.2295C11.0338 10.4637 10.3403 11.0213 9.91769 11.7822C9.49505 12.543 9.37717 13.446 9.58947 14.2964L10.0618 16.2309C10.1558 16.5876 10.1568 16.9638 10.0648 17.321C9.97274 17.6783 9.79095 18.0036 9.53804 18.2638L8.20083 19.6949C7.60739 20.3208 7.27474 21.1642 7.27474 22.0429C7.27474 22.9217 7.60739 23.7651 8.20083 24.391L9.54302 25.8187C9.79588 26.0787 9.97764 26.404 10.0697 26.7611C10.1617 27.1182 10.1607 27.4944 10.0667 27.8509L9.59445 29.7855C9.38213 30.6359 9.5 31.539 9.92263 32.2999C10.3453 33.0609 11.0388 33.6186 11.8536 33.8529L13.2217 34.2552L7.10031 48.8725C7.05294 48.9832 7.03862 49.1061 7.0592 49.2253C7.07977 49.3446 7.1343 49.4546 7.21573 49.5413C7.29716 49.628 7.40174 49.6872 7.51593 49.7115C7.63013 49.7357 7.7487 49.7237 7.85629 49.6772L13.0862 47.4466L15.2336 52.8802C15.2772 52.9902 15.351 53.0846 15.4458 53.1514C15.5406 53.2182 15.6522 53.2546 15.7667 53.256H15.7734C15.8868 53.2559 15.9977 53.2215 16.0927 53.157C16.1876 53.0925 16.2625 53.0007 16.3082 52.8928L21.9092 39.5905C22.1822 39.5828 22.4539 39.6334 22.7073 39.739C22.9608 39.8447 23.1908 40.0033 23.383 40.2049L24.76 41.5981C25.3625 42.2142 26.1739 42.5596 27.0191 42.5596C27.8644 42.5596 28.6758 42.2142 29.2782 41.5981L30.6547 40.2049C30.8469 40.0032 31.0768 39.8446 31.3303 39.7389C31.5838 39.6332 31.8555 39.5827 32.1285 39.5905L37.7295 52.8928C37.7752 53.0008 37.85 53.0926 37.945 53.1571C38.0399 53.2216 38.1509 53.256 38.2643 53.256H38.271C38.3855 53.2546 38.497 53.2181 38.5918 53.1513C38.6866 53.0845 38.7604 52.9902 38.8041 52.8802L40.9504 47.4443L46.1809 49.6749C46.2885 49.721 46.4069 49.7326 46.5209 49.7082C46.6349 49.6839 46.7393 49.6246 46.8206 49.5381C46.902 49.4516 46.9565 49.3417 46.9773 49.2227C46.9982 49.1037 46.9842 48.981 46.9374 48.8702L40.8193 34.2541L42.1858 33.8518C43.0006 33.6175 43.6942 33.0597 44.1169 32.2988C44.5396 31.5379 44.6576 30.6349 44.4455 29.7844L43.9732 27.8498C43.8792 27.4932 43.8782 27.117 43.9703 26.7598C44.0625 26.4027 44.2444 26.0774 44.4975 25.8175L45.8369 24.3876C46.4299 23.7614 46.7623 22.9181 46.7623 22.0395C46.7623 21.1609 46.4299 20.3176 45.8369 19.6914L44.4975 18.2615C44.2444 18.0015 44.0624 17.6761 43.9703 17.3189C43.8781 16.9616 43.8791 16.5853 43.9732 16.2286L44.4455 14.2941C44.6576 13.4436 44.5396 12.5406 44.1168 11.7798C43.6941 11.019 43.0006 10.4614 42.1858 10.2272L40.3376 9.68467C39.9943 9.59082 39.6811 9.40394 39.43 9.14311C39.179 8.88229 38.999 8.55688 38.9086 8.20012L38.3876 6.27877C38.1622 5.43185 37.6254 4.71097 36.8932 4.27164C36.1609 3.83231 35.2918 3.70975 34.4733 3.9304L32.6119 4.42123C32.2689 4.51895 31.9071 4.52005 31.5637 4.4244C31.2202 4.32874 30.9074 4.13979 30.6575 3.87695L29.2782 2.48379C28.7492 1.94385 28.0576 1.60943 27.3194 1.53662ZM10.7221 30.0838C10.5939 30.6274 10.6728 31.2014 10.9423 31.6859C11.2118 32.1705 11.651 32.528 12.1682 32.6839L14.0164 33.2259C14.5523 33.3764 15.0408 33.6703 15.4333 34.0782C15.8258 34.4861 16.1086 34.9938 16.2534 35.5507L16.776 37.4715C16.9255 38.0097 17.2698 38.4668 17.7365 38.747C18.2032 39.0272 18.7563 39.1087 19.2796 38.9744L21.1416 38.4836C21.4108 38.4117 21.6876 38.375 21.9656 38.3744C22.802 38.3757 23.6039 38.7208 24.1965 39.3342L25.573 40.7302C25.9617 41.1183 26.4798 41.335 27.0188 41.335C27.5579 41.335 28.076 41.1183 28.4647 40.7302L29.839 39.3365C30.2324 38.9294 30.7216 38.6367 31.2578 38.4874C31.794 38.3382 32.3585 38.3376 32.895 38.4859L34.7565 38.9767C35.2799 39.111 35.8331 39.0296 36.3 38.7494C36.7669 38.4692 37.1114 38.0121 37.2611 37.4738L37.7826 35.553C37.9275 34.9961 38.2102 34.4884 38.6027 34.0805C38.9952 33.6726 39.4838 33.3787 40.0196 33.2282L41.8678 32.6862C42.3856 32.5306 42.8254 32.1727 43.095 31.6876C43.3646 31.2024 43.4431 30.6277 43.314 30.0838L42.8417 28.1492C42.6989 27.5917 42.6993 27.005 42.8429 26.4477C42.9865 25.8904 43.2683 25.382 43.6602 24.9732L45.0007 23.5456C45.3746 23.1419 45.5835 22.6033 45.5835 22.0429C45.5835 21.4826 45.3746 20.944 45.0007 20.5403L43.6613 19.1103C43.2695 18.7016 42.9878 18.1932 42.8442 17.6359C42.7006 17.0786 42.7001 16.4919 42.8428 15.9344L43.3151 13.9998C43.4442 13.4559 43.3657 12.8811 43.0961 12.396C42.8265 11.9109 42.3868 11.553 41.8689 11.3974L40.0207 10.8548C39.4848 10.7044 38.9962 10.4106 38.6037 10.0027C38.2112 9.59474 37.9285 9.08697 37.7837 8.53002L37.2622 6.60925C37.1122 6.07112 36.7678 5.61416 36.3009 5.33402C35.834 5.05388 35.281 4.97229 34.7576 5.10631L32.8961 5.59771C32.3593 5.74571 31.7945 5.74484 31.2581 5.59518C30.7216 5.44552 30.2323 5.15232 29.839 4.7448L28.4647 3.35164C28.076 2.96356 27.5579 2.74682 27.0188 2.74682C26.4798 2.74682 25.9617 2.96356 25.573 3.35164L24.1982 4.7448C23.805 5.15182 23.316 5.44456 22.7799 5.59382C22.2439 5.74307 21.6796 5.74362 21.1432 5.59541L19.2812 5.10401C18.7579 4.97002 18.2051 5.05165 17.7384 5.33181C17.2717 5.61197 16.9274 6.06891 16.7777 6.60695L16.2551 8.52772C16.1103 9.0847 15.8275 9.5925 15.435 10.0005C15.0425 10.4085 14.554 10.7025 14.0181 10.8531L12.1699 11.3951C11.6522 11.551 11.2126 11.9089 10.9431 12.3939C10.6735 12.879 10.5949 13.4536 10.7237 13.9975L11.196 15.9321C11.3389 16.4895 11.3386 17.0762 11.1951 17.6336C11.0516 18.1909 10.7699 18.6993 10.3781 19.108L9.037 20.538C8.66383 20.9421 8.45546 21.4805 8.45546 22.0406C8.45546 22.6008 8.66383 23.1392 9.037 23.5433L10.3781 24.9732C10.77 25.3819 11.0517 25.8903 11.1953 26.4477C11.3388 27.005 11.3391 27.5918 11.196 28.1492L10.7237 30.0838H10.7221ZM40.8541 46.0925C40.7832 46.0622 40.7073 46.0468 40.6307 46.047C40.5541 46.0472 40.4782 46.0631 40.4075 46.0938C40.3368 46.1245 40.2726 46.1694 40.2185 46.2259C40.1645 46.2823 40.1217 46.3493 40.0926 46.423L38.245 51.0973L33.5343 39.9043L34.4706 40.1515C35.2889 40.3721 36.158 40.2497 36.8902 39.8104C37.6225 39.3712 38.1593 38.6505 38.3849 37.8037L38.9086 35.8829C39.0333 35.3932 39.3247 34.9672 39.7287 34.684L45.2944 47.9863L40.8541 46.0896V46.0925ZM27.0186 8.93004L29.8982 10.6577L19.5566 16.8649L16.6781 15.1406L27.0197 8.93348L27.0186 8.93004ZM27.602 34.8012V22.3904L37.9436 16.1832V28.5964L27.602 34.8035V34.8012ZM22.5264 18.6454L20.7224 17.5626L31.0639 11.3554L32.8679 12.4382L22.5264 18.6454ZM20.1113 18.596L21.9435 19.6949V21.8938L20.0549 20.6535L20.1102 18.5954L20.1113 18.596ZM27.0186 21.3403L23.6932 19.3454L34.0348 13.1383L37.3601 15.1355L27.0186 21.3426V21.3403ZM16.093 16.1855V28.5964L26.4346 34.8035V22.3904L23.1087 20.3955V22.9938C23.1087 23.1022 23.0808 23.2086 23.0279 23.302C22.975 23.3953 22.899 23.4723 22.8078 23.5249C22.7162 23.5772 22.6127 23.6031 22.5082 23.5999C22.4037 23.5966 22.3019 23.5644 22.2133 23.5065L19.1496 21.4949C19.0639 21.4387 18.9938 21.3603 18.9462 21.2674C18.8986 21.1745 18.8751 21.0703 18.8781 20.965L18.9616 17.9074L16.0919 16.1832L16.093 16.1855ZM15.2181 29.4706L26.7271 36.376C26.8156 36.4295 26.9162 36.4576 27.0186 36.4576C27.1209 36.4576 27.2215 36.4295 27.31 36.376L38.8184 29.4706C38.9071 29.4174 38.9807 29.3409 39.0318 29.2488C39.083 29.1567 39.1099 29.0522 39.1099 28.9458V15.1355C39.1099 15.029 39.083 14.9244 39.0319 14.8322C38.9807 14.74 38.9071 14.6634 38.8184 14.6102L27.31 7.7047C27.2214 7.65159 27.1209 7.62363 27.0186 7.62363C26.9163 7.62363 26.8158 7.65159 26.7271 7.7047L15.2181 14.6102C15.1294 14.6633 15.0557 14.7399 15.0046 14.8321C14.9534 14.9244 14.9265 15.029 14.9267 15.1355V28.9481C14.927 29.0541 14.954 29.1582 15.0052 29.2499C15.0563 29.3416 15.1298 29.4177 15.2181 29.4706Z" fill="#001DE1" stroke="#001DE1" stroke-width="0.75"/>
</svg>
