<svg width="778" height="239" viewBox="0 0 778 239" fill="none" xmlns="http://www.w3.org/2000/svg">
<path d="M678.133 55.5C678.133 59.9183 681.715 63.5 686.133 63.5C690.552 63.5 694.133 59.9183 694.133 55.5C694.133 51.0817 690.552 47.5 686.133 47.5C681.715 47.5 678.133 51.0817 678.133 55.5ZM768.91 123.375L770.013 124.391L770.013 124.391L768.91 123.375ZM2.9215 160.5L4.32041 159.959L4.32041 159.959L2.9215 160.5ZM341.263 206.625C341.263 211.043 344.845 214.625 349.263 214.625C353.682 214.625 357.263 211.043 357.263 206.625C357.263 202.207 353.682 198.625 349.263 198.625C344.845 198.625 341.263 202.207 341.263 206.625ZM346.783 203.465L345.452 202.774L344.07 205.437L345.401 206.128L346.783 203.465ZM338.702 203.251L340.115 203.755L341.122 200.929L339.709 200.426L338.702 203.251ZM332.403 198.213L330.95 197.84L330.204 200.746L331.657 201.119L332.403 198.213ZM324.42 199.521L325.894 199.8L326.451 196.852L324.977 196.573L324.42 199.521ZM317.466 195.347L315.98 195.139L315.564 198.11L317.05 198.318L317.466 195.347ZM309.615 197.421L311.108 197.575L311.415 194.591L309.923 194.437L309.615 197.421ZM302.469 193.78L300.973 193.668L300.75 196.66L302.246 196.771L302.469 193.78ZM294.783 196.304L296.281 196.381L296.436 193.385L294.938 193.308L294.783 196.304ZM287.349 192.989L285.85 192.94L285.751 195.938L287.25 195.988L287.349 192.989ZM279.837 195.801L281.337 195.828L281.39 192.828L279.891 192.802L279.837 195.801ZM272.344 192.715L270.844 192.707L270.828 195.707L272.328 195.715L272.344 192.715ZM264.837 195.715L266.337 195.708L266.322 192.708L264.822 192.715L264.837 195.715ZM257.321 192.786L255.821 192.806L255.862 195.805L257.361 195.785L257.321 192.786ZM249.827 195.914L251.326 195.884L251.265 192.884L249.765 192.915L249.827 195.914ZM242.294 193.09L240.794 193.129L240.873 196.128L242.372 196.089L242.294 193.09ZM234.846 196.303L236.345 196.257L236.253 193.259L234.754 193.305L234.846 196.303ZM227.273 193.547L225.774 193.598L225.876 196.597L227.375 196.546L227.273 193.547ZM219.863 196.811L221.362 196.757L221.253 193.759L219.754 193.813L219.863 196.811ZM212.262 194.093L210.763 194.15L210.877 197.148L212.376 197.091L212.262 194.093ZM204.871 197.38L206.37 197.322L206.254 194.324L204.755 194.382L204.871 197.38ZM197.258 194.674L195.759 194.732L195.875 197.729L197.374 197.671L197.258 194.674ZM189.871 197.959L191.37 197.902L191.256 194.904L189.757 194.961L189.871 197.959ZM182.261 195.239L180.762 195.293L180.871 198.292L182.37 198.237L182.261 195.239ZM174.862 198.5L176.361 198.45L176.26 195.451L174.761 195.502L174.862 198.5ZM167.269 195.743L165.77 195.789L165.861 198.787L167.361 198.742L167.269 195.743ZM159.845 198.956L161.344 198.917L161.265 195.918L159.765 195.957L159.845 198.956ZM152.282 196.137L150.783 196.169L150.847 199.168L152.347 199.136L152.282 196.137ZM144.818 199.276L146.317 199.253L146.271 196.253L144.771 196.277L144.818 199.276ZM137.304 196.368L135.804 196.381L135.83 199.381L137.33 199.368L137.304 196.368ZM129.782 199.403L131.282 199.402L131.28 196.402L129.78 196.403L129.782 199.403ZM122.316 196.374L120.816 196.361L120.79 199.361L122.29 199.374L122.316 196.374ZM114.743 199.27L116.243 199.299L116.3 196.299L114.801 196.27L114.743 199.27ZM107.328 196.081L105.829 196.034L105.734 199.032L107.233 199.08L107.328 196.081ZM99.7112 198.791L101.21 198.859L101.347 195.862L99.8481 195.794L99.7112 198.791ZM92.3626 195.392L90.8654 195.299L90.6798 198.294L92.177 198.387L92.3626 195.392ZM84.7127 197.856L86.2078 197.976L86.4493 194.986L84.9541 194.865L84.7127 197.856ZM77.4584 194.179L75.9663 194.025L75.6589 197.009L77.1511 197.163L77.4584 194.179ZM69.6783 196.299L71.166 196.491L71.5496 193.516L70.0619 193.324L69.6783 196.299ZM62.6957 192.264L61.2145 192.027L60.7409 194.989L62.222 195.226L62.6957 192.264ZM54.7375 193.893L56.2091 194.184L56.7908 191.241L55.3192 190.95L54.7375 193.893ZM48.0719 189.357L46.6146 189.001L45.9039 191.916L47.3612 192.271L48.0719 189.357ZM40.1058 190.301L41.5418 190.734L42.4083 187.862L40.9722 187.429L40.1058 190.301ZM33.9086 185.042L32.5056 184.512L31.4446 187.318L32.8476 187.848L33.9086 185.042ZM25.8086 184.846L27.1603 185.496L28.461 182.793L27.1093 182.142L25.8086 184.846ZM20.6831 178.616L19.4125 177.818L17.8181 180.36L19.0887 181.157L20.6831 178.616ZM12.8643 176.623L14.0073 177.595L15.9501 175.309L14.8071 174.337L12.8643 176.623ZM9.74364 169.212L8.79317 168.052L6.47231 169.953L7.42279 171.113L9.74364 169.212ZM3.1379 164.624L3.82781 165.956L6.49166 164.577L5.80175 163.245L3.1379 164.624ZM3.51914 156.522L3.42234 155.025L0.428595 155.218L0.52539 156.715L3.51914 156.522ZM2.90397 148.878L2.01338 150.085L4.42738 151.866L5.31797 150.659L2.90397 148.878ZM10.4615 146.219L11.7411 145.436L10.1756 142.877L8.89605 143.66L10.4615 146.219ZM15.9305 140.257L14.533 140.802L15.6226 143.597L17.0201 143.052L15.9305 140.257ZM24.2803 140.666L25.7249 140.262L24.9178 137.373L23.4731 137.776L24.2803 140.666ZM30.5846 136.027L29.1188 136.345L29.755 139.277L31.2209 138.958L30.5846 136.027ZM38.8772 137.485L40.3558 137.232L39.851 134.275L38.3724 134.528L38.8772 137.485ZM45.5755 133.416L44.0899 133.623L44.5043 136.594L45.9899 136.387L45.5755 133.416ZM53.5505 135.433L55.0409 135.263L54.7015 132.283L53.2111 132.452L53.5505 135.433ZM60.7453 131.673L59.2518 131.813L59.5319 134.8L61.0253 134.66L60.7453 131.673ZM68.3918 134.031L69.8873 133.915L69.6555 130.924L68.1599 131.04L68.3918 134.031ZM75.9339 130.494L74.4369 130.589L74.6264 133.583L76.1234 133.488L75.9339 130.494ZM83.4906 133.065L84.9886 132.988L84.8335 129.992L83.3355 130.069L83.4906 133.065ZM90.811 129.721L89.3123 129.784L89.4373 132.781L90.9359 132.718L90.811 129.721ZM98.6412 132.433L100.14 132.384L100.043 129.386L98.5434 129.434L98.6412 132.433ZM106.02 129.22L104.521 129.257L104.596 132.256L106.095 132.219L106.02 129.22ZM113.519 132.06L115.019 132.033L114.964 129.033L113.464 129.06L113.519 132.06ZM121.1 128.946L119.6 128.964L119.636 131.964L121.136 131.946L121.1 128.946ZM128.783 131.877L130.283 131.868L130.264 128.868L128.764 128.878L128.783 131.877ZM136.148 128.85L134.648 128.852L134.652 131.852L136.152 131.85L136.148 128.85ZM143.671 131.857L145.171 131.862L145.18 128.862L143.68 128.857L143.671 131.857ZM151.355 128.898L149.855 128.887L149.833 131.887L151.333 131.898L151.355 128.898ZM158.855 131.968L160.355 131.985L160.388 128.985L158.888 128.968L158.855 131.968ZM166.328 129.064L164.828 129.042L164.785 132.042L166.284 132.064L166.328 129.064ZM173.827 132.186L175.326 132.212L175.38 129.213L173.88 129.186L173.827 132.186ZM181.539 129.333L180.039 129.302L179.977 132.302L181.477 132.333L181.539 129.333ZM188.984 132.498L190.484 132.533L190.554 129.534L189.054 129.499L188.984 132.498ZM196.51 129.682L195.011 129.643L194.934 132.642L196.433 132.681L196.51 129.682ZM203.968 132.883L205.468 132.925L205.552 129.926L204.052 129.884L203.968 132.883ZM211.676 130.106L210.177 130.061L210.087 133.059L211.586 133.104L211.676 130.106ZM219.135 133.339L220.634 133.387L220.73 130.389L219.231 130.341L219.135 133.339ZM226.688 130.586L225.188 130.535L225.087 133.534L226.586 133.584L226.688 130.586ZM234.104 133.844L235.603 133.897L235.709 130.899L234.21 130.846L234.104 133.844ZM241.795 131.12L240.296 131.065L240.186 134.063L241.685 134.118L241.795 131.12ZM249.291 134.404L250.79 134.461L250.905 131.464L249.406 131.406L249.291 134.404ZM256.861 131.696L255.362 131.637L255.243 134.635L256.742 134.694L256.861 131.696ZM264.243 134.995L265.742 135.055L265.864 132.058L264.365 131.997L264.243 134.995ZM271.916 132.308L270.417 132.245L270.292 135.243L271.791 135.305L271.916 132.308ZM279.383 135.626L280.881 135.689L281.009 132.692L279.511 132.628L279.383 135.626ZM287.027 132.952L285.529 132.887L285.399 135.884L286.897 135.949L287.027 132.952ZM294.388 136.278L295.887 136.344L296.019 133.347L294.521 133.281L294.388 136.278ZM302.048 133.617L300.549 133.549L300.415 136.546L301.913 136.614L302.048 133.617ZM309.469 136.955L310.967 137.024L311.103 134.027L309.605 133.958L309.469 136.955ZM317.18 134.305L315.682 134.236L315.544 137.233L317.042 137.302L317.18 134.305ZM324.534 137.649L326.033 137.718L326.172 134.722L324.673 134.652L324.534 137.649ZM332.188 135.003L330.69 134.933L330.55 137.929L332.048 137.999L332.188 135.003ZM339.581 138.353L341.08 138.424L341.221 135.427L339.723 135.357L339.581 138.353ZM347.273 135.713L345.775 135.642L345.633 138.639L347.131 138.71L347.273 135.713ZM354.67 139.067L356.168 139.139L356.31 136.142L354.812 136.071L354.67 139.067ZM362.33 136.428L360.831 136.357L360.689 139.353L362.187 139.425L362.33 136.428ZM369.713 139.782L371.211 139.854L371.354 136.857L369.855 136.786L369.713 139.782ZM377.387 137.144L375.889 137.073L375.747 140.069L377.245 140.14L377.387 137.144ZM384.781 140.498L386.279 140.569L386.421 137.572L384.922 137.501L384.781 140.498ZM392.458 137.857L390.959 137.787L390.818 140.783L392.316 140.854L392.458 137.857ZM399.851 141.208L401.349 141.278L401.489 138.282L399.991 138.211L399.851 141.208ZM407.52 138.563L406.022 138.493L405.882 141.49L407.381 141.56L407.52 138.563ZM414.904 141.908L416.402 141.977L416.541 138.98L415.042 138.911L414.904 141.908ZM422.558 139.256L421.06 139.188L420.923 142.185L422.422 142.253L422.558 139.256ZM429.98 142.596L431.478 142.663L431.613 139.666L430.115 139.599L429.98 142.596ZM437.657 139.936L436.158 139.87L436.025 142.867L437.524 142.933L437.657 139.936ZM445.05 143.265L446.549 143.33L446.68 140.333L445.181 140.268L445.05 143.265ZM452.686 140.593L451.187 140.529L451.058 143.526L452.557 143.59L452.686 140.593ZM460.088 143.91L461.587 143.973L461.713 140.976L460.214 140.913L460.088 143.91ZM467.784 141.227L466.286 141.166L466.162 144.163L467.661 144.225L467.784 141.227ZM475.206 144.531L476.704 144.591L476.824 141.593L475.326 141.533L475.206 144.531ZM482.835 141.83L481.336 141.771L481.22 144.769L482.719 144.828L482.835 141.83ZM490.198 145.114L491.697 145.171L491.81 142.173L490.311 142.116L490.198 145.114ZM497.893 142.397L496.394 142.342L496.285 145.34L497.784 145.395L497.893 142.397ZM505.36 145.665L506.859 145.717L506.963 142.719L505.464 142.667L505.36 145.665ZM512.991 142.924L511.492 142.874L511.392 145.872L512.891 145.922L512.991 142.924ZM520.375 146.166L521.874 146.213L521.969 143.215L520.47 143.167L520.375 146.166ZM527.982 143.399L526.482 143.354L526.393 146.353L527.892 146.397L527.982 143.399ZM535.509 146.618L537.009 146.66L537.093 143.661L535.593 143.619L535.509 146.618ZM543.145 143.823L541.645 143.784L541.568 146.783L543.067 146.822L543.145 143.823ZM550.562 147.008L552.061 147.044L552.132 144.045L550.633 144.009L550.562 147.008ZM558.058 144.177L556.558 144.145L556.494 147.144L557.994 147.176L558.058 144.177ZM565.66 147.331L567.16 147.359L567.217 144.359L565.717 144.331L565.66 147.331ZM573.296 144.463L571.796 144.439L571.748 147.439L573.248 147.463L573.296 144.463ZM580.752 147.573L582.252 147.592L582.291 144.593L580.791 144.573L580.752 147.573ZM588.2 144.659L586.7 144.644L586.67 147.644L588.17 147.659L588.2 144.659ZM595.827 147.722L597.327 147.732L597.346 144.732L595.846 144.722L595.827 147.722ZM603.446 144.758L601.946 144.754L601.937 147.754L603.437 147.758L603.446 144.758ZM610.939 147.764L612.439 147.762L612.436 144.762L610.936 144.764L610.939 147.764ZM618.312 144.74L616.812 144.748L616.829 147.748L618.329 147.74L618.312 144.74ZM626.028 147.679L627.528 147.664L627.497 144.664L625.997 144.68L626.028 147.679ZM633.59 144.582L632.09 144.605L632.137 147.605L633.637 147.582L633.59 144.582ZM641.103 147.445L642.603 147.414L642.539 144.414L641.04 144.446L641.103 147.445ZM648.451 144.267L646.952 144.308L647.034 147.307L648.533 147.266L648.451 144.267ZM656.267 147.029L657.766 146.977L657.663 143.979L656.164 144.031L656.267 147.029ZM663.689 143.744L662.191 143.807L662.316 146.805L663.815 146.742L663.689 143.744ZM671.171 146.403L672.67 146.328L672.519 143.332L671.021 143.407L671.171 146.403ZM678.681 142.985L677.183 143.075L677.363 146.07L678.861 145.98L678.681 142.985ZM686.474 145.482L687.97 145.375L687.757 142.383L686.261 142.489L686.474 145.482ZM693.582 141.925L692.087 142.05L692.336 145.039L693.831 144.915L693.582 141.925ZM701.464 144.225L702.957 144.078L702.664 141.093L701.172 141.239L701.464 144.225ZM708.728 140.435L707.238 140.607L707.581 143.587L709.072 143.415L708.728 140.435ZM716.323 142.511L717.809 142.31L717.408 139.337L715.922 139.538L716.323 142.511ZM723.596 138.407L722.115 138.645L722.591 141.607L724.072 141.37L723.596 138.407ZM731.47 140.071L732.943 139.789L732.378 136.842L730.905 137.125L731.47 140.071ZM738.219 135.581L736.758 135.921L737.437 138.843L738.898 138.503L738.219 135.581ZM746.324 136.579L747.765 136.162L746.932 133.28L745.491 133.697L746.324 136.579ZM752.521 131.395L751.115 131.918L752.161 134.73L753.567 134.207L752.521 131.395ZM760.549 131.18L761.886 130.5L760.526 127.826L759.189 128.507L760.549 131.18ZM765.41 124.582L764.241 125.522L766.121 127.86L767.29 126.92L765.41 124.582ZM772.665 121.168L773.547 119.955L771.121 118.19L770.239 119.403L772.665 121.168ZM773.67 112.797L773.219 114.227L776.08 115.13L776.531 113.699L773.67 112.797ZM777.368 105.208L777.198 103.718L774.217 104.059L774.388 105.549L777.368 105.208ZM772.164 98.5079L772.851 99.8412L775.518 98.4671L774.831 97.1337L772.164 98.5079ZM770.122 90.3057L769.139 89.1726L766.873 91.1382L767.855 92.2713L770.122 90.3057ZM762.317 86.8636L763.463 87.8315L765.399 85.5395L764.253 84.5717L762.317 86.8636ZM757.752 79.6826L756.509 78.8429L754.83 81.3288L756.073 82.1685L757.752 79.6826ZM749.399 78.052L750.704 78.7905L752.181 76.1792L750.875 75.4407L749.399 78.052ZM743.743 71.7059L742.394 71.0504L741.083 73.7487L742.432 74.4043L743.743 71.7059ZM735.247 71.1458L736.629 71.7311L737.799 68.9688L736.418 68.3836L735.247 71.1458ZM728.937 65.4108L727.532 64.887L726.484 67.6981L727.89 68.222L728.937 65.4108ZM720.438 65.6107L721.863 66.0798L722.801 63.2303L721.376 62.7612L720.438 65.6107ZM713.704 60.3848L712.263 59.9658L711.425 62.8463L712.866 63.2654L713.704 60.3848ZM705.235 61.1794L706.688 61.5519L707.433 58.6458L705.98 58.2733L705.235 61.1794ZM698.18 56.4001L696.716 56.0717L696.06 58.9989L697.523 59.3273L698.18 56.4001ZM689.771 57.7059L691.243 57.9919L691.815 55.0469L690.343 54.7609L689.771 57.7059ZM350.074 205.363C349.036 204.696 347.938 204.064 346.783 203.465L345.401 206.128C346.481 206.688 347.499 207.275 348.453 207.887L350.074 205.363ZM339.709 200.426C337.421 199.61 334.981 198.875 332.403 198.213L331.657 201.119C334.159 201.761 336.511 202.47 338.702 203.251L339.709 200.426ZM324.977 196.573C322.566 196.118 320.06 195.71 317.466 195.347L317.05 198.318C319.602 198.675 322.061 199.075 324.42 199.521L324.977 196.573ZM309.923 194.437C307.501 194.188 305.015 193.969 302.469 193.78L302.246 196.771C304.766 196.959 307.224 197.175 309.615 197.421L309.923 194.437ZM294.938 193.308C292.456 193.18 289.925 193.074 287.349 192.989L287.25 195.988C289.809 196.072 292.321 196.177 294.783 196.304L294.938 193.308ZM279.891 192.802C277.41 192.757 274.894 192.729 272.344 192.715L272.328 195.715C274.866 195.729 277.37 195.757 279.837 195.801L279.891 192.802ZM264.822 192.715C262.348 192.728 259.847 192.751 257.321 192.786L257.361 195.785C259.879 195.751 262.372 195.727 264.837 195.715L264.822 192.715ZM249.765 192.915C247.294 192.966 244.803 193.024 242.294 193.09L242.372 196.089C244.876 196.024 247.362 195.965 249.827 195.914L249.765 192.915ZM234.754 193.305C232.275 193.381 229.78 193.462 227.273 193.547L227.375 196.546C229.88 196.46 232.37 196.379 234.846 196.303L234.754 193.305ZM219.754 193.813C217.266 193.904 214.768 193.998 212.262 194.093L212.376 197.091C214.881 196.996 217.378 196.902 219.863 196.811L219.754 193.813ZM204.755 194.382C202.261 194.479 199.762 194.577 197.258 194.674L197.374 197.671C199.878 197.574 202.378 197.477 204.871 197.38L204.755 194.382ZM189.757 194.961C187.26 195.056 184.761 195.149 182.261 195.239L182.37 198.237C184.871 198.147 187.372 198.054 189.871 197.959L189.757 194.961ZM174.761 195.502C172.261 195.586 169.763 195.667 167.269 195.743L167.361 198.742C169.859 198.666 172.36 198.585 174.862 198.5L174.761 195.502ZM159.765 195.957C157.265 196.023 154.77 196.084 152.282 196.137L152.347 199.136C154.84 199.083 157.34 199.022 159.845 198.956L159.765 195.957ZM144.771 196.277C142.271 196.315 139.782 196.346 137.304 196.368L137.33 199.368C139.815 199.346 142.312 199.315 144.818 199.276L144.771 196.277ZM129.78 196.403C127.277 196.405 124.788 196.396 122.316 196.374L122.29 199.374C124.772 199.395 127.27 199.405 129.782 199.403L129.78 196.403ZM114.801 196.27C112.289 196.222 109.797 196.159 107.328 196.081L107.233 199.08C109.715 199.158 112.219 199.221 114.743 199.27L114.801 196.27ZM99.8481 195.794C97.3247 195.678 94.8286 195.545 92.3626 195.392L92.177 198.387C94.6603 198.54 97.1726 198.675 99.7112 198.791L99.8481 195.794ZM84.9541 194.865C82.4178 194.66 79.9182 194.432 77.4584 194.179L77.1511 197.163C79.6342 197.419 82.1558 197.649 84.7127 197.856L84.9541 194.865ZM70.0619 193.324C67.5571 193.001 65.1005 192.648 62.6957 192.264L62.222 195.226C64.6588 195.616 67.1455 195.973 69.6783 196.299L70.0619 193.324ZM55.3192 190.95C52.836 190.459 50.4187 189.929 48.0719 189.357L47.3612 192.271C49.7541 192.855 52.2145 193.394 54.7375 193.893L55.3192 190.95ZM40.9722 187.429C38.5205 186.69 36.164 185.895 33.9086 185.042L32.8476 187.848C35.1727 188.727 37.5945 189.544 40.1058 190.301L40.9722 187.429ZM27.1093 182.142C24.8271 181.044 22.6825 179.87 20.6831 178.616L19.0887 181.157C21.1919 182.476 23.4356 183.704 25.8086 184.846L27.1093 182.142ZM14.8071 174.337C12.9232 172.736 11.2323 171.03 9.74364 169.212L7.42279 171.113C9.03416 173.081 10.8537 174.914 12.8643 176.623L14.8071 174.337ZM5.80175 163.245C5.25172 162.183 4.75739 161.088 4.32041 159.959L1.52259 161.041C1.99893 162.272 2.53802 163.466 3.1379 164.624L5.80175 163.245ZM4.32041 159.959C3.846 158.733 3.58819 157.589 3.51914 156.522L0.52539 156.715C0.616745 158.128 0.95361 159.571 1.52259 161.041L4.32041 159.959ZM5.31797 150.659C6.46034 149.11 8.16252 147.625 10.4615 146.219L8.89605 143.66C6.37331 145.203 4.34043 146.931 2.90397 148.878L5.31797 150.659ZM17.0201 143.052C19.195 142.205 21.6177 141.409 24.2803 140.666L23.4731 137.776C20.7332 138.542 18.2141 139.367 15.9305 140.257L17.0201 143.052ZM31.2209 138.958C33.6329 138.435 36.1867 137.944 38.8772 137.485L38.3724 134.528C35.6432 134.993 33.0452 135.493 30.5846 136.027L31.2209 138.958ZM45.9899 136.387C48.4204 136.048 50.9416 135.73 53.5505 135.433L53.2111 132.452C50.5794 132.752 48.033 133.073 45.5755 133.416L45.9899 136.387ZM61.0253 134.66C63.4185 134.435 65.8747 134.226 68.3918 134.031L68.1599 131.04C65.6279 131.236 63.1556 131.447 60.7453 131.673L61.0253 134.66ZM76.1234 133.488C78.5308 133.336 80.987 133.195 83.4906 133.065L83.3355 130.069C80.8211 130.2 78.3534 130.341 75.9339 130.494L76.1234 133.488ZM90.9359 132.718C93.4616 132.613 96.0305 132.518 98.6412 132.433L98.5434 129.434C95.924 129.52 93.3461 129.615 90.811 129.721L90.9359 132.718ZM106.095 132.219C108.537 132.158 111.012 132.105 113.519 132.06L113.464 129.06C110.951 129.106 108.469 129.159 106.02 129.22L106.095 132.219ZM121.136 131.946C123.655 131.916 126.205 131.893 128.783 131.877L128.764 128.878C126.181 128.894 123.626 128.916 121.1 128.946L121.136 131.946ZM136.152 131.85C138.634 131.847 141.141 131.849 143.671 131.857L143.68 128.857C141.146 128.849 138.635 128.847 136.148 128.85L136.152 131.85ZM151.333 131.898C153.819 131.917 156.326 131.94 158.855 131.968L158.888 128.968C156.356 128.94 153.845 128.917 151.355 128.898L151.333 131.898ZM166.284 132.064C168.78 132.1 171.294 132.141 173.827 132.186L173.88 129.186C171.344 129.141 168.827 129.101 166.328 129.064L166.284 132.064ZM181.477 132.333C183.963 132.384 186.466 132.439 188.984 132.498L189.054 129.499C186.533 129.44 184.028 129.385 181.539 129.333L181.477 132.333ZM196.433 132.681C198.931 132.745 201.443 132.812 203.968 132.883L204.052 129.884C201.524 129.814 199.01 129.746 196.51 129.682L196.433 132.681ZM211.586 133.104C214.09 133.18 216.606 133.258 219.135 133.339L219.231 130.341C216.7 130.26 214.182 130.181 211.676 130.106L211.586 133.104ZM226.586 133.584C229.082 133.668 231.588 133.755 234.104 133.844L234.21 130.846C231.692 130.757 229.184 130.67 226.688 130.586L226.586 133.584ZM241.685 134.118C244.21 134.211 246.746 134.307 249.291 134.404L249.406 131.406C246.86 131.309 244.322 131.213 241.795 131.12L241.685 134.118ZM256.742 134.694C259.235 134.792 261.735 134.893 264.243 134.995L264.365 131.997C261.856 131.895 259.354 131.795 256.861 131.696L256.742 134.694ZM271.791 135.305C274.315 135.411 276.845 135.517 279.383 135.626L279.511 132.628C276.972 132.52 274.44 132.413 271.916 132.308L271.791 135.305ZM286.897 135.949C289.388 136.058 291.885 136.167 294.388 136.278L294.521 133.281C292.017 133.17 289.519 133.061 287.027 132.952L286.897 135.949ZM301.913 136.614C304.427 136.727 306.945 136.841 309.469 136.955L309.605 133.958C307.081 133.844 304.562 133.73 302.048 133.617L301.913 136.614ZM317.042 137.302C319.536 137.417 322.033 137.533 324.534 137.649L324.673 134.652C322.172 134.536 319.674 134.42 317.18 134.305L317.042 137.302ZM332.048 137.999C334.556 138.117 337.067 138.235 339.581 138.353L339.723 135.357C337.208 135.238 334.697 135.12 332.188 135.003L332.048 137.999ZM347.131 138.71C349.642 138.829 352.155 138.948 354.67 139.067L354.812 136.071C352.297 135.951 349.784 135.832 347.273 135.713L347.131 138.71ZM362.187 139.425C364.695 139.544 367.203 139.663 369.713 139.782L369.855 136.786C367.346 136.667 364.837 136.547 362.33 136.428L362.187 139.425ZM377.245 140.14C379.756 140.26 382.268 140.379 384.781 140.498L384.922 137.501C382.41 137.382 379.899 137.263 377.387 137.144L377.245 140.14ZM392.316 140.854C394.828 140.972 397.34 141.09 399.851 141.208L399.991 138.211C397.481 138.094 394.969 137.976 392.458 137.857L392.316 140.854ZM407.381 141.56C409.89 141.676 412.398 141.793 414.904 141.908L415.042 138.911C412.536 138.796 410.029 138.68 407.52 138.563L407.381 141.56ZM422.422 142.253C424.943 142.368 427.463 142.482 429.98 142.596L430.115 139.599C427.598 139.485 425.079 139.371 422.558 139.256L422.422 142.253ZM437.524 142.933C440.036 143.045 442.545 143.155 445.05 143.265L445.181 140.268C442.676 140.158 440.168 140.048 437.657 139.936L437.524 142.933ZM452.557 143.59C455.071 143.698 457.582 143.805 460.088 143.91L460.214 140.913C457.709 140.807 455.199 140.701 452.686 140.593L452.557 143.59ZM467.661 144.225C470.181 144.328 472.696 144.43 475.206 144.531L475.326 141.533C472.817 141.433 470.303 141.331 467.784 141.227L467.661 144.225ZM482.719 144.828C485.217 144.925 487.711 145.02 490.198 145.114L490.311 142.116C487.825 142.022 485.333 141.927 482.835 141.83L482.719 144.828ZM497.784 145.395C500.316 145.487 502.842 145.577 505.36 145.665L505.464 142.667C502.948 142.579 500.424 142.489 497.893 142.397L497.784 145.395ZM512.891 145.922C515.393 146.006 517.888 146.087 520.375 146.166L520.47 143.167C517.985 143.088 515.492 143.007 512.991 142.924L512.891 145.922ZM527.892 146.397C530.441 146.474 532.98 146.547 535.509 146.618L535.593 143.619C533.066 143.549 530.529 143.475 527.982 143.399L527.892 146.397ZM543.067 146.822C545.576 146.887 548.074 146.949 550.562 147.008L550.633 144.009C548.148 143.95 545.652 143.888 543.145 143.823L543.067 146.822ZM557.994 147.176C560.562 147.231 563.118 147.283 565.66 147.331L565.717 144.331C563.177 144.283 560.624 144.232 558.058 144.177L557.994 147.176ZM573.248 147.463C575.763 147.503 578.265 147.54 580.752 147.573L580.791 144.573C578.307 144.54 575.808 144.504 573.296 144.463L573.248 147.463ZM588.17 147.659C590.739 147.684 593.291 147.706 595.827 147.722L595.846 144.722C593.315 144.706 590.766 144.684 588.2 144.659L588.17 147.659ZM603.437 147.758C605.956 147.765 608.457 147.767 610.939 147.764L610.936 144.764C608.458 144.767 605.961 144.765 603.446 144.758L603.437 147.758ZM618.329 147.74C620.917 147.726 623.484 147.706 626.028 147.679L625.997 144.68C623.458 144.706 620.896 144.726 618.312 144.74L618.329 147.74ZM633.637 147.582C636.15 147.543 638.639 147.497 641.103 147.445L641.04 144.446C638.581 144.498 636.098 144.543 633.59 144.582L633.637 147.582ZM648.533 147.266C651.141 147.195 653.719 147.116 656.267 147.029L656.164 144.031C653.624 144.118 651.053 144.196 648.451 144.267L648.533 147.266ZM663.815 146.742C666.3 146.638 668.752 146.525 671.171 146.403L671.021 143.407C668.61 143.528 666.166 143.641 663.689 143.744L663.815 146.742ZM678.861 145.98C681.44 145.825 683.978 145.659 686.474 145.482L686.261 142.489C683.777 142.666 681.25 142.831 678.681 142.985L678.861 145.98ZM693.831 144.915C696.427 144.699 698.972 144.469 701.464 144.225L701.172 141.239C698.695 141.481 696.164 141.71 693.582 141.925L693.831 144.915ZM709.072 143.415C711.549 143.13 713.966 142.829 716.323 142.511L715.922 139.538C713.586 139.853 711.187 140.152 708.728 140.435L709.072 143.415ZM724.072 141.37C726.623 140.96 729.09 140.527 731.47 140.071L730.905 137.125C728.557 137.575 726.12 138.002 723.596 138.407L724.072 141.37ZM738.898 138.503C741.502 137.897 743.98 137.256 746.324 136.579L745.491 133.697C743.203 134.358 740.777 134.986 738.219 135.581L738.898 138.503ZM753.567 134.207C756.107 133.262 758.439 132.255 760.549 131.18L759.189 128.507C757.197 129.521 754.972 130.483 752.521 131.395L753.567 134.207ZM767.29 126.92C768.295 126.112 769.205 125.27 770.013 124.391L767.806 122.359C767.109 123.116 766.311 123.857 765.41 124.582L767.29 126.92ZM770.013 124.391C770.996 123.323 771.879 122.249 772.665 121.168L770.239 119.403C769.525 120.385 768.716 121.37 767.806 122.359L770.013 124.391ZM776.531 113.699C777.427 110.863 777.69 108.022 777.368 105.208L774.388 105.549C774.661 107.941 774.44 110.358 773.67 112.797L776.531 113.699ZM774.831 97.1337C773.627 94.7979 772.041 92.5188 770.122 90.3057L767.855 92.2713C769.645 94.3346 771.087 96.4177 772.164 98.5079L774.831 97.1337ZM764.253 84.5717C762.274 82.9006 760.101 81.2694 757.752 79.6826L756.073 82.1685C758.343 83.7024 760.43 85.2696 762.317 86.8636L764.253 84.5717ZM750.875 75.4407C748.612 74.1608 746.231 72.9148 743.743 71.7059L742.432 74.4043C744.868 75.588 747.194 76.8051 749.399 78.052L750.875 75.4407ZM736.418 68.3836C734.002 67.3597 731.506 66.368 728.937 65.4108L727.89 68.222C730.419 69.1645 732.874 70.14 735.247 71.1458L736.418 68.3836ZM721.376 62.7612C718.873 61.9369 716.313 61.1441 713.704 60.3848L712.866 63.2654C715.443 64.0152 717.969 64.7976 720.438 65.6107L721.376 62.7612ZM705.98 58.2733C703.418 57.6166 700.817 56.9916 698.18 56.4001L697.523 59.3273C700.131 59.9124 702.703 60.5303 705.235 61.1794L705.98 58.2733ZM690.343 54.7609C689.035 54.5069 687.72 54.2611 686.399 54.0236L685.868 56.9764C687.176 57.2113 688.477 57.4545 689.771 57.7059L690.343 54.7609Z" fill="#EAEF00"/>
<path fill-rule="evenodd" clip-rule="evenodd" d="M686.593 43.6341C688.755 42.6853 703.138 35.9296 703.138 24.0625C703.138 15.6056 695.609 8.75 686.322 8.75C677.034 8.75 669.506 15.6056 669.506 24.0625C669.506 35.9296 683.888 42.6853 686.051 43.6341C686.23 43.7129 686.413 43.7129 686.593 43.6341ZM686.322 30.625C690.302 30.625 693.529 27.6869 693.529 24.0625C693.529 20.4381 690.302 17.5 686.322 17.5C682.341 17.5 679.115 20.4381 679.115 24.0625C679.115 27.6869 682.341 30.625 686.322 30.625Z" fill="#001DE1"/>
<path fill-rule="evenodd" clip-rule="evenodd" d="M350.324 191.662C352.249 190.826 366.933 184.053 366.933 172.062C366.933 163.606 359.404 156.75 350.117 156.75C340.83 156.75 333.301 163.606 333.301 172.062C333.301 184.053 347.985 190.826 349.91 191.662C350.044 191.72 350.189 191.72 350.324 191.662ZM350.117 178.625C354.097 178.625 357.324 175.687 357.324 172.062C357.324 168.438 354.097 165.5 350.117 165.5C346.137 165.5 342.91 168.438 342.91 172.062C342.91 175.687 346.137 178.625 350.117 178.625Z" fill="#001DE1"/>
<path d="M364.702 216.877C364.702 216.081 364.702 215.683 364.884 215.348C365.065 215.014 365.399 214.797 366.067 214.363L378.779 206.094C379.176 205.836 379.374 205.707 379.597 205.707C379.819 205.707 380.018 205.836 380.414 206.094L393.127 214.363C393.794 214.797 394.128 215.014 394.309 215.348C394.491 215.683 394.491 216.081 394.491 216.877V231.187C394.491 231.895 394.491 232.248 394.271 232.468C394.051 232.687 393.698 232.687 392.991 232.687H366.202C365.495 232.687 365.142 232.687 364.922 232.468C364.702 232.248 364.702 231.895 364.702 231.187V216.877Z" fill="#0043FF" fill-opacity="0.25"/>
<path d="M360.447 216.752C360.447 216.943 360.447 217.038 360.508 217.07C360.569 217.101 360.646 217.046 360.802 216.936L378.73 204.239C379.149 203.942 379.358 203.794 379.597 203.794C379.835 203.794 380.045 203.942 380.464 204.239L398.391 216.936C398.547 217.046 398.625 217.101 398.686 217.07C398.746 217.038 398.746 216.943 398.746 216.752V214.088C398.746 213.708 398.746 213.518 398.663 213.356C398.579 213.194 398.424 213.084 398.113 212.864L380.464 200.364C380.045 200.067 379.835 199.919 379.597 199.919C379.358 199.919 379.149 200.067 378.73 200.364L361.08 212.864C360.77 213.084 360.615 213.194 360.531 213.356C360.447 213.518 360.447 213.708 360.447 214.088V216.752Z" fill="#222222"/>
<path d="M383.416 221.062H375.777C374.949 221.062 374.277 221.734 374.277 222.562V232.575C374.277 232.637 374.328 232.688 374.39 232.688H384.804C384.866 232.688 384.916 232.637 384.916 232.575V222.562C384.916 221.734 384.244 221.062 383.416 221.062Z" fill="#222222"/>
<rect x="388.108" y="201.688" width="4.25549" height="7.75" rx="0.375" fill="#222222"/>
</svg>
